<?xml version="1.0" encoding="UTF-8"?>
<svg width="1040px" height="73px" viewBox="0 0 1040 73" version="1.1" xmlns="http://www.w3.org/2000/svg" xmlns:xlink="http://www.w3.org/1999/xlink">
    <!-- Generator: Sketch 61.2 (89653) - https://sketch.com -->
    <title>Group</title>
    <desc>Created with Sketch.</desc>
    <g id="Page-1" stroke="none" stroke-width="1" fill="none" fill-rule="evenodd">
        <g id="Desktop-Copy" transform="translate(-1391.000000, -320.000000)" fill="#FFFFFF">
            <g id="Group" transform="translate(1312.000000, 287.000000)">
                <g id="Graph_USA-Copy-3">
                    <g id="vert_separ">
                        <g id="Group-7">
                            <path d="M79,37.9977278 C79,35.2375589 81.240187,33 83.9971183,33 L143.100386,33 C145.860219,33 148.097505,35.2365614 148.097505,37.9977278 L148.097505,100.092265 C148.097505,102.852434 145.857318,105.089993 143.100386,105.089993 L83.9971183,105.089993 C81.2372861,105.089993 79,102.853431 79,100.092265 L79,37.9977278 Z" id="vert" fill-opacity="0.2" opacity="0.2"></path>
                            <path d="M217.195009,37.9977278 C217.195009,35.2375589 219.435196,33 222.192128,33 L281.295395,33 C284.055228,33 286.292514,35.2365614 286.292514,37.9977278 L286.292514,100.092265 C286.292514,102.852434 284.052327,105.089993 281.295395,105.089993 L222.192128,105.089993 C219.432295,105.089993 217.195009,102.853431 217.195009,100.092265 L217.195009,37.9977278 Z" id="vert-copy" fill-opacity="0.2" opacity="0.2"></path>
                            <path d="M356.377126,37.9977278 C356.377126,35.2375589 358.617313,33 361.374244,33 L420.477512,33 C423.237344,33 425.47463,35.2365614 425.47463,37.9977278 L425.47463,100.092265 C425.47463,102.852434 423.234443,105.089993 420.477512,105.089993 L361.374244,105.089993 C358.614412,105.089993 356.377126,102.853431 356.377126,100.092265 L356.377126,37.9977278 Z" id="vert-copy-2" fill-opacity="0.2" opacity="0.2"></path>
                            <path d="M494.572135,37.9977278 C494.572135,35.2375589 496.812322,33 499.569253,33 L558.672521,33 C561.432353,33 563.669639,35.2365614 563.669639,37.9977278 L563.669639,100.092265 C563.669639,102.852434 561.429453,105.089993 558.672521,105.089993 L499.569253,105.089993 C496.809421,105.089993 494.572135,102.853431 494.572135,100.092265 L494.572135,37.9977278 Z" id="vert-copy-3" fill-opacity="0.2" opacity="0.2"></path>
                            <path d="M633.754251,37.9977278 C633.754251,35.2375589 635.994438,33 638.75137,33 L697.854638,33 C700.61447,33 702.851756,35.2365614 702.851756,37.9977278 L702.851756,100.092265 C702.851756,102.852434 700.611569,105.089993 697.854638,105.089993 L638.75137,105.089993 C635.991537,105.089993 633.754251,102.853431 633.754251,100.092265 L633.754251,37.9977278 Z" id="vert-copy-4" fill-opacity="0.2" opacity="0.2"></path>
                            <path d="M771.949261,37.9977278 C771.949261,35.2375589 774.189447,33 776.946379,33 L836.049647,33 C838.809479,33 841.046765,35.2365614 841.046765,37.9977278 L841.046765,100.092265 C841.046765,102.852434 838.806578,105.089993 836.049647,105.089993 L776.946379,105.089993 C774.186547,105.089993 771.949261,102.853431 771.949261,100.092265 L771.949261,37.9977278 Z" id="vert-copy-5" fill-opacity="0.2" opacity="0.2"></path>
                            <path d="M911.131377,37.9977278 C911.131377,35.2375589 913.371564,33 916.128495,33 L975.231763,33 C977.991595,33 980.228882,35.2365614 980.228882,37.9977278 L980.228882,100.092265 C980.228882,102.852434 977.988695,105.089993 975.231763,105.089993 L916.128495,105.089993 C913.368663,105.089993 911.131377,102.853431 911.131377,100.092265 L911.131377,37.9977278 Z" id="vert-copy-6" fill-opacity="0.2" opacity="0.2"></path>
                            <path d="M1049.32639,37.9977278 C1049.32639,35.2375589 1051.56657,33 1054.3235,33 L1113.42677,33 C1116.1866,33 1118.42389,35.2365614 1118.42389,37.9977278 L1118.42389,100.092265 C1118.42389,102.852434 1116.1837,105.089993 1113.42677,105.089993 L1054.3235,105.089993 C1051.56367,105.089993 1049.32639,102.853431 1049.32639,100.092265 L1049.32639,37.9977278 Z" id="vert-copy-7" fill-opacity="0.2" opacity="0.2"></path>
                            <rect id="Rectangle" fill-opacity="0.2" x="81" y="69" width="1036" height="1"></rect>
                            <rect id="Rectangle-Copy" fill-opacity="0.2" x="81" y="51" width="1036" height="1"></rect>
                            <rect id="Rectangle-Copy-2" fill-opacity="0.5" x="81" y="105" width="1036" height="1"></rect>
                            <rect id="Rectangle-Copy-3" fill-opacity="0.2" x="81" y="88" width="1036" height="1"></rect>
                        </g>
                    </g>
                </g>
                <rect id="Rectangle-Copy-4" fill-opacity="0.2" x="81" y="36" width="1036" height="1"></rect>
            </g>
        </g>
    </g>
</svg>